<svg xmlns="http://www.w3.org/2000/svg" viewBox="0 0 800 600" width="800" height="600" role="img" aria-label="مندي دجاج"><title>مندي دجاج</title><defs>
<linearGradient id="bg" x1="0" y1="0" x2="0" y2="1"><stop offset="0" stop-color="#F8F2E7"/><stop offset="1" stop-color="#E9DCC6"/></linearGradient>
<radialGradient id="rice" cx="42%" cy="32%"><stop offset="0" stop-color="#FAF0D8"/><stop offset="1" stop-color="#EDDCAF"/></radialGradient>
<radialGradient id="saff" cx="50%" cy="40%"><stop offset="0" stop-color="#F2B95A"/><stop offset="1" stop-color="#DE9430"/></radialGradient>
<linearGradient id="meat" x1="0" y1="0" x2="0" y2="1"><stop offset="0" stop-color="#A96B3C"/><stop offset="1" stop-color="#7E4A28"/></linearGradient>
<linearGradient id="chick" x1="0" y1="0" x2="0" y2="1"><stop offset="0" stop-color="#E3AC63"/><stop offset="1" stop-color="#C0813A"/></linearGradient>
<filter id="sh" x="-25%" y="-25%" width="150%" height="150%"><feDropShadow dx="0" dy="12" stdDeviation="16" flood-color="#7a5a33" flood-opacity="0.20"/></filter>
<filter id="soft" x="-20%" y="-20%" width="140%" height="140%"><feGaussianBlur stdDeviation="1.2"/></filter>
</defs><rect width="800" height="600" fill="url(#bg)"/><ellipse cx="400" cy="340" rx="272" ry="184" fill="#00000012"/><ellipse cx="400" cy="322" rx="262" ry="176" fill="#FFFFFF" filter="url(#sh)"/><ellipse cx="400" cy="322" rx="234" ry="154" fill="none" stroke="#E7DDCC" stroke-width="3"/><ellipse cx="400" cy="330" rx="206" ry="118" fill="url(#rice)"/><rect x="367" y="367" width="11" height="4.2" rx="2.1" fill="#FFF8E6" opacity="0.33" transform="rotate(21 367 367)"/><rect x="287" y="316" width="11" height="4.2" rx="2.1" fill="#FFF8E6" opacity="0.53" transform="rotate(-62 287 316)"/><rect x="523" y="346" width="11" height="4.2" rx="2.1" fill="#FFF8E6" opacity="0.34" transform="rotate(-60 523 346)"/><rect x="245" y="374" width="11" height="4.2" rx="2.1" fill="#FFF8E6" opacity="0.40" transform="rotate(-53 245 374)"/><rect x="270" y="256" width="11" height="4.2" rx="2.1" fill="#FFF8E6" opacity="0.48" transform="rotate(11 270 256)"/><rect x="441" y="327" width="11" height="4.2" rx="2.1" fill="#FFF8E6" opacity="0.43" transform="rotate(50 441 327)"/><rect x="441" y="359" width="11" height="4.2" rx="2.1" fill="#FFF8E6" opacity="0.67" transform="rotate(-27 441 359)"/><rect x="462" y="403" width="11" height="4.2" rx="2.1" fill="#FFF8E6" opacity="0.47" transform="rotate(19 462 403)"/><rect x="354" y="322" width="11" height="4.2" rx="2.1" fill="#FFF8E6" opacity="0.39" transform="rotate(-62 354 322)"/><rect x="347" y="267" width="11" height="4.2" rx="2.1" fill="#FFF8E6" opacity="0.56" transform="rotate(-26 347 267)"/><rect x="299" y="347" width="11" height="4.2" rx="2.1" fill="#FFF8E6" opacity="0.61" transform="rotate(41 299 347)"/><rect x="405" y="410" width="11" height="4.2" rx="2.1" fill="#FFF8E6" opacity="0.69" transform="rotate(4 405 410)"/><rect x="387" y="274" width="11" height="4.2" rx="2.1" fill="#FFF8E6" opacity="0.35" transform="rotate(67 387 274)"/><rect x="255" y="375" width="11" height="4.2" rx="2.1" fill="#FFF8E6" opacity="0.52" transform="rotate(-49 255 375)"/><rect x="552" y="351" width="11" height="4.2" rx="2.1" fill="#FFF8E6" opacity="0.56" transform="rotate(37 552 351)"/><rect x="476" y="288" width="11" height="4.2" rx="2.1" fill="#FFF8E6" opacity="0.57" transform="rotate(27 476 288)"/><rect x="286" y="296" width="11" height="4.2" rx="2.1" fill="#FFF8E6" opacity="0.73" transform="rotate(48 286 296)"/><rect x="246" y="344" width="11" height="4.2" rx="2.1" fill="#FFF8E6" opacity="0.62" transform="rotate(-62 246 344)"/><rect x="285" y="246" width="11" height="4.2" rx="2.1" fill="#FFF8E6" opacity="0.43" transform="rotate(45 285 246)"/><rect x="282" y="387" width="11" height="4.2" rx="2.1" fill="#FFF8E6" opacity="0.51" transform="rotate(-67 282 387)"/><rect x="432" y="362" width="11" height="4.2" rx="2.1" fill="#FFF8E6" opacity="0.65" transform="rotate(-62 432 362)"/><rect x="466" y="368" width="11" height="4.2" rx="2.1" fill="#FFF8E6" opacity="0.69" transform="rotate(-15 466 368)"/><rect x="513" y="364" width="11" height="4.2" rx="2.1" fill="#FFF8E6" opacity="0.70" transform="rotate(7 513 364)"/><rect x="475" y="241" width="11" height="4.2" rx="2.1" fill="#FFF8E6" opacity="0.49" transform="rotate(-31 475 241)"/><rect x="286" y="407" width="11" height="4.2" rx="2.1" fill="#FFF8E6" opacity="0.37" transform="rotate(64 286 407)"/><rect x="441" y="376" width="11" height="4.2" rx="2.1" fill="#FFF8E6" opacity="0.52" transform="rotate(-37 441 376)"/><rect x="317" y="301" width="11" height="4.2" rx="2.1" fill="#FFF8E6" opacity="0.49" transform="rotate(-69 317 301)"/><rect x="302" y="388" width="11" height="4.2" rx="2.1" fill="#FFF8E6" opacity="0.61" transform="rotate(63 302 388)"/><rect x="250" y="322" width="11" height="4.2" rx="2.1" fill="#FFF8E6" opacity="0.32" transform="rotate(25 250 322)"/><rect x="537" y="275" width="11" height="4.2" rx="2.1" fill="#FFF8E6" opacity="0.66" transform="rotate(52 537 275)"/><rect x="305" y="372" width="11" height="4.2" rx="2.1" fill="#FFF8E6" opacity="0.59" transform="rotate(-56 305 372)"/><rect x="446" y="340" width="11" height="4.2" rx="2.1" fill="#FFF8E6" opacity="0.37" transform="rotate(-41 446 340)"/><rect x="376" y="351" width="11" height="4.2" rx="2.1" fill="#FFF8E6" opacity="0.37" transform="rotate(-70 376 351)"/><rect x="493" y="368" width="11" height="4.2" rx="2.1" fill="#FFF8E6" opacity="0.69" transform="rotate(-66 493 368)"/><rect x="344" y="303" width="11" height="4.2" rx="2.1" fill="#FFF8E6" opacity="0.46" transform="rotate(-35 344 303)"/><rect x="356" y="358" width="11" height="4.2" rx="2.1" fill="#FFF8E6" opacity="0.75" transform="rotate(49 356 358)"/><rect x="269" y="346" width="11" height="4.2" rx="2.1" fill="#FFF8E6" opacity="0.35" transform="rotate(-58 269 346)"/><rect x="346" y="376" width="11" height="4.2" rx="2.1" fill="#FFF8E6" opacity="0.37" transform="rotate(46 346 376)"/><rect x="585" y="345" width="11" height="4.2" rx="2.1" fill="#FFF8E6" opacity="0.37" transform="rotate(4 585 345)"/><rect x="370" y="325" width="11" height="4.2" rx="2.1" fill="#FFF8E6" opacity="0.74" transform="rotate(4 370 325)"/><rect x="505" y="263" width="11" height="4.2" rx="2.1" fill="#FFF8E6" opacity="0.47" transform="rotate(-33 505 263)"/><rect x="484" y="411" width="11" height="4.2" rx="2.1" fill="#FFF8E6" opacity="0.65" transform="rotate(5 484 411)"/><rect x="356" y="374" width="11" height="4.2" rx="2.1" fill="#FFF8E6" opacity="0.74" transform="rotate(44 356 374)"/><rect x="504" y="254" width="11" height="4.2" rx="2.1" fill="#FFF8E6" opacity="0.63" transform="rotate(45 504 254)"/><rect x="420" y="405" width="11" height="4.2" rx="2.1" fill="#FFF8E6" opacity="0.31" transform="rotate(-20 420 405)"/><rect x="500" y="340" width="11" height="4.2" rx="2.1" fill="#FFF8E6" opacity="0.61" transform="rotate(-34 500 340)"/><rect x="524" y="311" width="11" height="4.2" rx="2.1" fill="#FFF8E6" opacity="0.74" transform="rotate(61 524 311)"/><rect x="511" y="312" width="11" height="4.2" rx="2.1" fill="#FFF8E6" opacity="0.40" transform="rotate(-39 511 312)"/><rect x="429" y="375" width="11" height="4.2" rx="2.1" fill="#FFF8E6" opacity="0.71" transform="rotate(17 429 375)"/><rect x="472" y="268" width="11" height="4.2" rx="2.1" fill="#FFF8E6" opacity="0.66" transform="rotate(21 472 268)"/><rect x="534" y="374" width="11" height="4.2" rx="2.1" fill="#FFF8E6" opacity="0.65" transform="rotate(57 534 374)"/><rect x="400" y="257" width="11" height="4.2" rx="2.1" fill="#FFF8E6" opacity="0.66" transform="rotate(-45 400 257)"/><rect x="315" y="412" width="11" height="4.2" rx="2.1" fill="#FFF8E6" opacity="0.48" transform="rotate(66 315 412)"/><rect x="248" y="390" width="11" height="4.2" rx="2.1" fill="#FFF8E6" opacity="0.38" transform="rotate(31 248 390)"/><rect x="452" y="360" width="11" height="4.2" rx="2.1" fill="#FFF8E6" opacity="0.66" transform="rotate(57 452 360)"/><rect x="506" y="407" width="11" height="4.2" rx="2.1" fill="#FFF8E6" opacity="0.60" transform="rotate(67 506 407)"/><rect x="316" y="393" width="11" height="4.2" rx="2.1" fill="#FFF8E6" opacity="0.31" transform="rotate(-52 316 393)"/><rect x="552" y="314" width="11" height="4.2" rx="2.1" fill="#FFF8E6" opacity="0.72" transform="rotate(4 552 314)"/><rect x="236" y="370" width="11" height="4.2" rx="2.1" fill="#FFF8E6" opacity="0.39" transform="rotate(46 236 370)"/><rect x="399" y="387" width="11" height="4.2" rx="2.1" fill="#FFF8E6" opacity="0.56" transform="rotate(-36 399 387)"/><rect x="393" y="398" width="11" height="4.2" rx="2.1" fill="#FFF8E6" opacity="0.71" transform="rotate(-52 393 398)"/><rect x="321" y="387" width="11" height="4.2" rx="2.1" fill="#FFF8E6" opacity="0.71" transform="rotate(12 321 387)"/><rect x="238" y="379" width="11" height="4.2" rx="2.1" fill="#FFF8E6" opacity="0.54" transform="rotate(0 238 379)"/><rect x="374" y="328" width="11" height="4.2" rx="2.1" fill="#FFF8E6" opacity="0.38" transform="rotate(-8 374 328)"/><rect x="572" y="332" width="11" height="4.2" rx="2.1" fill="#FFF8E6" opacity="0.51" transform="rotate(-46 572 332)"/><rect x="378" y="252" width="11" height="4.2" rx="2.1" fill="#FFF8E6" opacity="0.53" transform="rotate(-24 378 252)"/><rect x="240" y="298" width="11" height="4.2" rx="2.1" fill="#FFF8E6" opacity="0.55" transform="rotate(-55 240 298)"/><rect x="401" y="386" width="11" height="4.2" rx="2.1" fill="#FFF8E6" opacity="0.53" transform="rotate(38 401 386)"/><rect x="245" y="295" width="11" height="4.2" rx="2.1" fill="#FFF8E6" opacity="0.50" transform="rotate(58 245 295)"/><rect x="296" y="281" width="11" height="4.2" rx="2.1" fill="#FFF8E6" opacity="0.61" transform="rotate(2 296 281)"/><rect x="266" y="353" width="11" height="4.2" rx="2.1" fill="#FFF8E6" opacity="0.72" transform="rotate(-3 266 353)"/><rect x="344" y="236" width="11" height="4.2" rx="2.1" fill="#FFF8E6" opacity="0.42" transform="rotate(62 344 236)"/><rect x="226" y="292" width="11" height="4.2" rx="2.1" fill="#FFF8E6" opacity="0.36" transform="rotate(48 226 292)"/><rect x="492" y="379" width="11" height="4.2" rx="2.1" fill="#FFF8E6" opacity="0.41" transform="rotate(-60 492 379)"/><rect x="541" y="368" width="11" height="4.2" rx="2.1" fill="#FFF8E6" opacity="0.70" transform="rotate(40 541 368)"/><rect x="492" y="404" width="11" height="4.2" rx="2.1" fill="#FFF8E6" opacity="0.36" transform="rotate(22 492 404)"/><rect x="540" y="260" width="11" height="4.2" rx="2.1" fill="#FFF8E6" opacity="0.73" transform="rotate(-39 540 260)"/><rect x="292" y="374" width="11" height="4.2" rx="2.1" fill="#FFF8E6" opacity="0.67" transform="rotate(69 292 374)"/><rect x="467" y="389" width="11" height="4.2" rx="2.1" fill="#FFF8E6" opacity="0.45" transform="rotate(2 467 389)"/><rect x="436" y="386" width="11" height="4.2" rx="2.1" fill="#FFF8E6" opacity="0.31" transform="rotate(31 436 386)"/><rect x="280" y="307" width="11" height="4.2" rx="2.1" fill="#FFF8E6" opacity="0.45" transform="rotate(-67 280 307)"/><rect x="302" y="277" width="11" height="4.2" rx="2.1" fill="#FFF8E6" opacity="0.74" transform="rotate(-61 302 277)"/><rect x="445" y="229" width="11" height="4.2" rx="2.1" fill="#FFF8E6" opacity="0.42" transform="rotate(-55 445 229)"/><rect x="564" y="353" width="11" height="4.2" rx="2.1" fill="#FFF8E6" opacity="0.36" transform="rotate(-32 564 353)"/><rect x="238" y="377" width="11" height="4.2" rx="2.1" fill="#FFF8E6" opacity="0.42" transform="rotate(45 238 377)"/><rect x="509" y="412" width="11" height="4.2" rx="2.1" fill="#FFF8E6" opacity="0.62" transform="rotate(10 509 412)"/><rect x="439" y="344" width="11" height="4.2" rx="2.1" fill="#FFF8E6" opacity="0.49" transform="rotate(26 439 344)"/><rect x="567" y="375" width="11" height="4.2" rx="2.1" fill="#FFF8E6" opacity="0.66" transform="rotate(19 567 375)"/><rect x="554" y="379" width="11" height="4.2" rx="2.1" fill="#FFF8E6" opacity="0.69" transform="rotate(-61 554 379)"/><rect x="293" y="348" width="11" height="4.2" rx="2.1" fill="#FFF8E6" opacity="0.72" transform="rotate(7 293 348)"/><rect x="392" y="368" width="11" height="4.2" rx="2.1" fill="#FFF8E6" opacity="0.41" transform="rotate(4 392 368)"/><rect x="460" y="357" width="11" height="4.2" rx="2.1" fill="#FFF8E6" opacity="0.39" transform="rotate(-63 460 357)"/><rect x="360" y="384" width="11" height="4.2" rx="2.1" fill="#FFF8E6" opacity="0.43" transform="rotate(36 360 384)"/><rect x="319" y="330" width="11" height="4.2" rx="2.1" fill="#FFF8E6" opacity="0.31" transform="rotate(-21 319 330)"/><rect x="400" y="343" width="11" height="4.2" rx="2.1" fill="#FFF8E6" opacity="0.55" transform="rotate(33 400 343)"/><rect x="449" y="398" width="11" height="4.2" rx="2.1" fill="#FFF8E6" opacity="0.35" transform="rotate(61 449 398)"/><rect x="453" y="267" width="11" height="4.2" rx="2.1" fill="#FFF8E6" opacity="0.68" transform="rotate(-1 453 267)"/><rect x="293" y="377" width="11" height="4.2" rx="2.1" fill="#FFF8E6" opacity="0.74" transform="rotate(26 293 377)"/><rect x="304" y="411" width="11" height="4.2" rx="2.1" fill="#FFF8E6" opacity="0.59" transform="rotate(29 304 411)"/><rect x="307" y="365" width="11" height="4.2" rx="2.1" fill="#FFF8E6" opacity="0.36" transform="rotate(-62 307 365)"/><rect x="549" y="369" width="11" height="4.2" rx="2.1" fill="#FFF8E6" opacity="0.37" transform="rotate(-34 549 369)"/><rect x="552" y="379" width="11" height="4.2" rx="2.1" fill="#FFF8E6" opacity="0.60" transform="rotate(52 552 379)"/><rect x="381" y="381" width="11" height="4.2" rx="2.1" fill="#FFF8E6" opacity="0.51" transform="rotate(-29 381 381)"/><rect x="470" y="389" width="11" height="4.2" rx="2.1" fill="#FFF8E6" opacity="0.73" transform="rotate(-33 470 389)"/><rect x="540" y="317" width="11" height="4.2" rx="2.1" fill="#FFF8E6" opacity="0.73" transform="rotate(-36 540 317)"/><rect x="358" y="389" width="11" height="4.2" rx="2.1" fill="#FFF8E6" opacity="0.47" transform="rotate(-70 358 389)"/><rect x="266" y="342" width="11" height="4.2" rx="2.1" fill="#FFF8E6" opacity="0.53" transform="rotate(-42 266 342)"/><rect x="499" y="332" width="11" height="4.2" rx="2.1" fill="#FFF8E6" opacity="0.48" transform="rotate(-57 499 332)"/><rect x="428" y="334" width="11" height="4.2" rx="2.1" fill="#FFF8E6" opacity="0.40" transform="rotate(-27 428 334)"/><rect x="280" y="291" width="11" height="4.2" rx="2.1" fill="#FFF8E6" opacity="0.60" transform="rotate(35 280 291)"/><rect x="362" y="233" width="11" height="4.2" rx="2.1" fill="#FFF8E6" opacity="0.45" transform="rotate(-15 362 233)"/><rect x="474" y="326" width="11" height="4.2" rx="2.1" fill="#FFF8E6" opacity="0.59" transform="rotate(31 474 326)"/><rect x="569" y="356" width="11" height="4.2" rx="2.1" fill="#FFF8E6" opacity="0.58" transform="rotate(55 569 356)"/><rect x="382" y="235" width="11" height="4.2" rx="2.1" fill="#FFF8E6" opacity="0.54" transform="rotate(-50 382 235)"/><rect x="225" y="327" width="11" height="4.2" rx="2.1" fill="#FFF8E6" opacity="0.67" transform="rotate(43 225 327)"/><rect x="243" y="280" width="11" height="4.2" rx="2.1" fill="#FFF8E6" opacity="0.61" transform="rotate(26 243 280)"/><rect x="404" y="349" width="11" height="4.2" rx="2.1" fill="#FFF8E6" opacity="0.46" transform="rotate(-51 404 349)"/><rect x="539" y="389" width="11" height="4.2" rx="2.1" fill="#FFF8E6" opacity="0.58" transform="rotate(8 539 389)"/><rect x="289" y="268" width="11" height="4.2" rx="2.1" fill="#FFF8E6" opacity="0.30" transform="rotate(-1 289 268)"/><rect x="449" y="242" width="11" height="4.2" rx="2.1" fill="#FFF8E6" opacity="0.54" transform="rotate(0 449 242)"/><rect x="373" y="307" width="11" height="4.2" rx="2.1" fill="#FFF8E6" opacity="0.41" transform="rotate(33 373 307)"/><rect x="488" y="355" width="11" height="4.2" rx="2.1" fill="#FFF8E6" opacity="0.39" transform="rotate(32 488 355)"/><rect x="388" y="226" width="11" height="4.2" rx="2.1" fill="#FFF8E6" opacity="0.47" transform="rotate(-1 388 226)"/><rect x="243" y="342" width="11" height="4.2" rx="2.1" fill="#FFF8E6" opacity="0.58" transform="rotate(37 243 342)"/><rect x="367" y="307" width="11" height="4.2" rx="2.1" fill="#FFF8E6" opacity="0.41" transform="rotate(-49 367 307)"/><rect x="395" y="272" width="11" height="4.2" rx="2.1" fill="#FFF8E6" opacity="0.31" transform="rotate(9 395 272)"/><rect x="492" y="350" width="11" height="4.2" rx="2.1" fill="#FFF8E6" opacity="0.61" transform="rotate(24 492 350)"/><rect x="353" y="279" width="11" height="4.2" rx="2.1" fill="#FFF8E6" opacity="0.51" transform="rotate(2 353 279)"/><rect x="335" y="338" width="11" height="4.2" rx="2.1" fill="#FFF8E6" opacity="0.39" transform="rotate(55 335 338)"/><rect x="584" y="316" width="11" height="4.2" rx="2.1" fill="#FFF8E6" opacity="0.51" transform="rotate(-68 584 316)"/><rect x="480" y="236" width="11" height="4.2" rx="2.1" fill="#FFF8E6" opacity="0.42" transform="rotate(-7 480 236)"/><rect x="447" y="430" width="11" height="4.2" rx="2.1" fill="#FFF8E6" opacity="0.56" transform="rotate(-41 447 430)"/><rect x="487" y="390" width="11" height="4.2" rx="2.1" fill="#FFF8E6" opacity="0.36" transform="rotate(63 487 390)"/><rect x="458" y="262" width="11" height="4.2" rx="2.1" fill="#FFF8E6" opacity="0.62" transform="rotate(54 458 262)"/><rect x="421" y="430" width="11" height="4.2" rx="2.1" fill="#FFF8E6" opacity="0.31" transform="rotate(-2 421 430)"/><rect x="535" y="332" width="11" height="4.2" rx="2.1" fill="#FFF8E6" opacity="0.44" transform="rotate(-7 535 332)"/><rect x="471" y="378" width="11" height="4.2" rx="2.1" fill="#FFF8E6" opacity="0.68" transform="rotate(-26 471 378)"/><rect x="566" y="331" width="11" height="4.2" rx="2.1" fill="#FFF8E6" opacity="0.35" transform="rotate(47 566 331)"/><rect x="545" y="290" width="11" height="4.2" rx="2.1" fill="#FFF8E6" opacity="0.43" transform="rotate(56 545 290)"/><rect x="316" y="378" width="11" height="4.2" rx="2.1" fill="#FFF8E6" opacity="0.57" transform="rotate(70 316 378)"/><rect x="319" y="383" width="11" height="4.2" rx="2.1" fill="#FFF8E6" opacity="0.32" transform="rotate(-31 319 383)"/><rect x="541" y="388" width="11" height="4.2" rx="2.1" fill="#FFF8E6" opacity="0.72" transform="rotate(-30 541 388)"/><rect x="400" y="385" width="11" height="4.2" rx="2.1" fill="#FFF8E6" opacity="0.39" transform="rotate(2 400 385)"/><rect x="269" y="404" width="11" height="4.2" rx="2.1" fill="#FFF8E6" opacity="0.67" transform="rotate(54 269 404)"/><rect x="275" y="256" width="11" height="4.2" rx="2.1" fill="#FFF8E6" opacity="0.55" transform="rotate(62 275 256)"/><rect x="392" y="307" width="11" height="4.2" rx="2.1" fill="#FFF8E6" opacity="0.50" transform="rotate(33 392 307)"/><rect x="403" y="245" width="11" height="4.2" rx="2.1" fill="#FFF8E6" opacity="0.32" transform="rotate(-30 403 245)"/><rect x="461" y="313" width="11" height="4.2" rx="2.1" fill="#FFF8E6" opacity="0.45" transform="rotate(-4 461 313)"/><rect x="351" y="417" width="11" height="4.2" rx="2.1" fill="#FFF8E6" opacity="0.42" transform="rotate(67 351 417)"/><rect x="341" y="282" width="11" height="4.2" rx="2.1" fill="#FFF8E6" opacity="0.48" transform="rotate(8 341 282)"/><rect x="438" y="366" width="11" height="4.2" rx="2.1" fill="url(#saff)" opacity="0.85" transform="rotate(-41 438 366)"/><rect x="510" y="289" width="11" height="4.2" rx="2.1" fill="url(#saff)" opacity="0.85" transform="rotate(-39 510 289)"/><rect x="556" y="272" width="11" height="4.2" rx="2.1" fill="url(#saff)" opacity="0.85" transform="rotate(-7 556 272)"/><rect x="453" y="365" width="11" height="4.2" rx="2.1" fill="url(#saff)" opacity="0.85" transform="rotate(-57 453 365)"/><rect x="369" y="356" width="11" height="4.2" rx="2.1" fill="url(#saff)" opacity="0.85" transform="rotate(-37 369 356)"/><rect x="393" y="408" width="11" height="4.2" rx="2.1" fill="url(#saff)" opacity="0.85" transform="rotate(54 393 408)"/><rect x="400" y="263" width="11" height="4.2" rx="2.1" fill="url(#saff)" opacity="0.85" transform="rotate(-12 400 263)"/><rect x="286" y="320" width="11" height="4.2" rx="2.1" fill="url(#saff)" opacity="0.85" transform="rotate(-23 286 320)"/><rect x="492" y="351" width="11" height="4.2" rx="2.1" fill="url(#saff)" opacity="0.85" transform="rotate(65 492 351)"/><rect x="494" y="382" width="11" height="4.2" rx="2.1" fill="url(#saff)" opacity="0.85" transform="rotate(18 494 382)"/><rect x="457" y="293" width="11" height="4.2" rx="2.1" fill="url(#saff)" opacity="0.85" transform="rotate(-32 457 293)"/><rect x="401" y="396" width="11" height="4.2" rx="2.1" fill="url(#saff)" opacity="0.85" transform="rotate(-8 401 396)"/><rect x="566" y="303" width="11" height="4.2" rx="2.1" fill="url(#saff)" opacity="0.85" transform="rotate(52 566 303)"/><rect x="433" y="333" width="11" height="4.2" rx="2.1" fill="url(#saff)" opacity="0.85" transform="rotate(29 433 333)"/><rect x="503" y="286" width="11" height="4.2" rx="2.1" fill="url(#saff)" opacity="0.85" transform="rotate(12 503 286)"/><rect x="518" y="330" width="11" height="4.2" rx="2.1" fill="url(#saff)" opacity="0.85" transform="rotate(60 518 330)"/><rect x="480" y="244" width="11" height="4.2" rx="2.1" fill="url(#saff)" opacity="0.85" transform="rotate(66 480 244)"/><rect x="401" y="364" width="11" height="4.2" rx="2.1" fill="url(#saff)" opacity="0.85" transform="rotate(-48 401 364)"/><rect x="246" y="318" width="11" height="4.2" rx="2.1" fill="url(#saff)" opacity="0.85" transform="rotate(62 246 318)"/><rect x="373" y="248" width="11" height="4.2" rx="2.1" fill="url(#saff)" opacity="0.85" transform="rotate(37 373 248)"/><rect x="265" y="350" width="11" height="4.2" rx="2.1" fill="url(#saff)" opacity="0.85" transform="rotate(-64 265 350)"/><rect x="418" y="281" width="11" height="4.2" rx="2.1" fill="url(#saff)" opacity="0.85" transform="rotate(59 418 281)"/><rect x="337" y="285" width="11" height="4.2" rx="2.1" fill="url(#saff)" opacity="0.85" transform="rotate(-52 337 285)"/><rect x="398" y="413" width="11" height="4.2" rx="2.1" fill="url(#saff)" opacity="0.85" transform="rotate(28 398 413)"/><rect x="438" y="348" width="11" height="4.2" rx="2.1" fill="url(#saff)" opacity="0.85" transform="rotate(3 438 348)"/><rect x="298" y="298" width="11" height="4.2" rx="2.1" fill="url(#saff)" opacity="0.85" transform="rotate(-39 298 298)"/><rect x="385" y="324" width="11" height="4.2" rx="2.1" fill="url(#saff)" opacity="0.85" transform="rotate(-28 385 324)"/><rect x="221" y="355" width="11" height="4.2" rx="2.1" fill="url(#saff)" opacity="0.85" transform="rotate(20 221 355)"/><rect x="497" y="282" width="11" height="4.2" rx="2.1" fill="url(#saff)" opacity="0.85" transform="rotate(-37 497 282)"/><rect x="403" y="432" width="11" height="4.2" rx="2.1" fill="url(#saff)" opacity="0.85" transform="rotate(29 403 432)"/><rect x="390" y="344" width="11" height="4.2" rx="2.1" fill="url(#saff)" opacity="0.85" transform="rotate(-0 390 344)"/><rect x="344" y="270" width="11" height="4.2" rx="2.1" fill="url(#saff)" opacity="0.85" transform="rotate(-34 344 270)"/><rect x="310" y="243" width="11" height="4.2" rx="2.1" fill="url(#saff)" opacity="0.85" transform="rotate(-38 310 243)"/><rect x="507" y="343" width="11" height="4.2" rx="2.1" fill="url(#saff)" opacity="0.85" transform="rotate(-11 507 343)"/><rect x="366" y="288" width="11" height="4.2" rx="2.1" fill="url(#saff)" opacity="0.85" transform="rotate(42 366 288)"/><rect x="391" y="256" width="11" height="4.2" rx="2.1" fill="url(#saff)" opacity="0.85" transform="rotate(-41 391 256)"/><rect x="503" y="319" width="11" height="4.2" rx="2.1" fill="url(#saff)" opacity="0.85" transform="rotate(45 503 319)"/><rect x="411" y="379" width="11" height="4.2" rx="2.1" fill="url(#saff)" opacity="0.85" transform="rotate(36 411 379)"/><rect x="349" y="427" width="11" height="4.2" rx="2.1" fill="url(#saff)" opacity="0.85" transform="rotate(-1 349 427)"/><rect x="434" y="375" width="11" height="4.2" rx="2.1" fill="url(#saff)" opacity="0.85" transform="rotate(-12 434 375)"/><rect x="307" y="243" width="11" height="4.2" rx="2.1" fill="url(#saff)" opacity="0.85" transform="rotate(-50 307 243)"/><rect x="332" y="360" width="11" height="4.2" rx="2.1" fill="url(#saff)" opacity="0.85" transform="rotate(66 332 360)"/><rect x="427" y="348" width="11" height="4.2" rx="2.1" fill="url(#saff)" opacity="0.85" transform="rotate(-62 427 348)"/><rect x="260" y="391" width="11" height="4.2" rx="2.1" fill="url(#saff)" opacity="0.85" transform="rotate(54 260 391)"/><rect x="380" y="227" width="11" height="4.2" rx="2.1" fill="url(#saff)" opacity="0.85" transform="rotate(60 380 227)"/><rect x="361" y="369" width="11" height="4.2" rx="2.1" fill="url(#saff)" opacity="0.85" transform="rotate(61 361 369)"/><g><ellipse cx="400" cy="316" rx="118" ry="76" fill="#C98338"/><ellipse cx="378" cy="298" rx="76" ry="46" fill="#E7B36B" opacity="0.55"/><ellipse cx="470" cy="330" rx="34" ry="24" fill="#B06F2E"/><ellipse cx="330" cy="336" rx="30" ry="22" fill="#B06F2E"/></g><ellipse cx="409" cy="407" rx="7" ry="5" fill="#C88A46" opacity="0.9"/><ellipse cx="310" cy="389" rx="7" ry="5" fill="#C88A46" opacity="0.9"/><ellipse cx="369" cy="311" rx="7" ry="5" fill="#C88A46" opacity="0.9"/><ellipse cx="555" cy="338" rx="7" ry="5" fill="#C88A46" opacity="0.9"/><ellipse cx="395" cy="380" rx="7" ry="5" fill="#C88A46" opacity="0.9"/><ellipse cx="517" cy="328" rx="7" ry="5" fill="#C88A46" opacity="0.9"/><ellipse cx="461" cy="269" rx="7" ry="5" fill="#C88A46" opacity="0.9"/><ellipse cx="358" cy="299" rx="7" ry="5" fill="#C88A46" opacity="0.9"/><ellipse cx="295" cy="257" rx="7" ry="5" fill="#C88A46" opacity="0.9"/><ellipse cx="255" cy="317" rx="7" ry="5" fill="#C88A46" opacity="0.9"/><ellipse cx="380" cy="307" rx="7" ry="5" fill="#C88A46" opacity="0.9"/><ellipse cx="407" cy="250" rx="7" ry="5" fill="#C88A46" opacity="0.9"/><ellipse cx="391" cy="347" rx="7" ry="5" fill="#C88A46" opacity="0.9"/><ellipse cx="478" cy="277" rx="7" ry="5" fill="#C88A46" opacity="0.9"/><ellipse cx="369" cy="234" rx="7" ry="5" fill="#C88A46" opacity="0.9"/><ellipse cx="364" cy="233" rx="7" ry="5" fill="#C88A46" opacity="0.9"/><ellipse cx="280" cy="387" rx="7" ry="5" fill="#C88A46" opacity="0.9"/><ellipse cx="245" cy="364" rx="7" ry="5" fill="#C88A46" opacity="0.9"/><ellipse cx="438" cy="308" rx="7" ry="5" fill="#C88A46" opacity="0.9"/><ellipse cx="452" cy="367" rx="7" ry="5" fill="#C88A46" opacity="0.9"/><ellipse cx="510" cy="315" rx="7" ry="5" fill="#C88A46" opacity="0.9"/><ellipse cx="335" cy="289" rx="7" ry="5" fill="#C88A46" opacity="0.9"/><circle cx="298" cy="327" r="4.6" fill="#6B3F2A" opacity="0.9"/><circle cx="325" cy="392" r="4.6" fill="#6B3F2A" opacity="0.9"/><circle cx="265" cy="282" r="4.6" fill="#6B3F2A" opacity="0.9"/><circle cx="334" cy="242" r="4.6" fill="#6B3F2A" opacity="0.9"/><circle cx="502" cy="252" r="4.6" fill="#6B3F2A" opacity="0.9"/><circle cx="368" cy="294" r="4.6" fill="#6B3F2A" opacity="0.9"/><circle cx="504" cy="255" r="4.6" fill="#6B3F2A" opacity="0.9"/><circle cx="503" cy="287" r="4.6" fill="#6B3F2A" opacity="0.9"/><circle cx="383" cy="285" r="4.6" fill="#6B3F2A" opacity="0.9"/><circle cx="461" cy="264" r="4.6" fill="#6B3F2A" opacity="0.9"/><circle cx="391" cy="355" r="4.6" fill="#6B3F2A" opacity="0.9"/><circle cx="500" cy="251" r="4.6" fill="#6B3F2A" opacity="0.9"/><circle cx="525" cy="377" r="4.6" fill="#6B3F2A" opacity="0.9"/><circle cx="346" cy="351" r="4.6" fill="#6B3F2A" opacity="0.9"/><circle cx="361" cy="414" r="4.6" fill="#6B3F2A" opacity="0.9"/><circle cx="424" cy="315" r="4.6" fill="#6B3F2A" opacity="0.9"/></svg>