<svg xmlns="http://www.w3.org/2000/svg" viewBox="0 0 800 600" width="800" height="600" role="img" aria-label="تمر سكري"><title>تمر سكري</title><defs>
<linearGradient id="bg" x1="0" y1="0" x2="0" y2="1"><stop offset="0" stop-color="#F8F2E7"/><stop offset="1" stop-color="#E9DCC6"/></linearGradient>
<radialGradient id="rice" cx="42%" cy="32%"><stop offset="0" stop-color="#FAF0D8"/><stop offset="1" stop-color="#EDDCAF"/></radialGradient>
<radialGradient id="saff" cx="50%" cy="40%"><stop offset="0" stop-color="#F2B95A"/><stop offset="1" stop-color="#DE9430"/></radialGradient>
<linearGradient id="meat" x1="0" y1="0" x2="0" y2="1"><stop offset="0" stop-color="#A96B3C"/><stop offset="1" stop-color="#7E4A28"/></linearGradient>
<linearGradient id="chick" x1="0" y1="0" x2="0" y2="1"><stop offset="0" stop-color="#E3AC63"/><stop offset="1" stop-color="#C0813A"/></linearGradient>
<filter id="sh" x="-25%" y="-25%" width="150%" height="150%"><feDropShadow dx="0" dy="12" stdDeviation="16" flood-color="#7a5a33" flood-opacity="0.20"/></filter>
<filter id="soft" x="-20%" y="-20%" width="140%" height="140%"><feGaussianBlur stdDeviation="1.2"/></filter>
</defs><rect width="800" height="600" fill="url(#bg)"/><ellipse cx="400" cy="340" rx="238" ry="180" fill="#00000012"/><ellipse cx="400" cy="322" rx="228" ry="172" fill="#FFFFFF" filter="url(#sh)"/><ellipse cx="400" cy="322" rx="200" ry="150" fill="none" stroke="#E7DDCC" stroke-width="3"/><g transform="rotate(6 336 300)"><ellipse cx="336" cy="300" rx="34" ry="46" fill="#7A4322"/><ellipse cx="336" cy="300" rx="29" ry="41" fill="#94552C"/><ellipse cx="327" cy="287" rx="12" ry="17" fill="#B87343" opacity="0.65"/></g><g transform="rotate(12 400 286)"><ellipse cx="400" cy="286" rx="34" ry="46" fill="#7A4322"/><ellipse cx="400" cy="286" rx="29" ry="41" fill="#94552C"/><ellipse cx="391" cy="273" rx="12" ry="17" fill="#B87343" opacity="0.65"/></g><g transform="rotate(14 462 304)"><ellipse cx="462" cy="304" rx="34" ry="46" fill="#7A4322"/><ellipse cx="462" cy="304" rx="29" ry="41" fill="#94552C"/><ellipse cx="453" cy="291" rx="12" ry="17" fill="#B87343" opacity="0.65"/></g><g transform="rotate(21 366 352)"><ellipse cx="366" cy="352" rx="34" ry="46" fill="#7A4322"/><ellipse cx="366" cy="352" rx="29" ry="41" fill="#94552C"/><ellipse cx="357" cy="339" rx="12" ry="17" fill="#B87343" opacity="0.65"/></g><g transform="rotate(12 432 356)"><ellipse cx="432" cy="356" rx="34" ry="46" fill="#7A4322"/><ellipse cx="432" cy="356" rx="29" ry="41" fill="#94552C"/><ellipse cx="423" cy="343" rx="12" ry="17" fill="#B87343" opacity="0.65"/></g><g transform="rotate(20 400 324)"><ellipse cx="400" cy="324" rx="34" ry="46" fill="#7A4322"/><ellipse cx="400" cy="324" rx="29" ry="41" fill="#94552C"/><ellipse cx="391" cy="311" rx="12" ry="17" fill="#B87343" opacity="0.65"/></g></svg>